<svg viewBox="0 0 255.68 119.42" xmlns="http://www.w3.org/2000/svg"><g fill="#fff"><path d="m60.67 109.65h4.79v1h-3.76v2.74h3.65v1h-3.65v3.62h3.76v1h-4.79zm9.65 8.27h2.55v1h-3.57v-9.22h1zm5.68-8.27h4.79v1h-3.79v2.74h3.65v1h-3.65v3.62h3.76v1h-4.76zm11.27 7 2.63-7h1.1l-3.74 9.77-3.75-9.77h1.12zm9-5.07-1.58 3.69h3.12zm-2 4.65-1.11 2.61h-1.16l4.26-9.66 4.15 9.66h-1.15l-1.09-2.61zm10.48 2.61h-1v-8.26h-2.22v-1h5.47v1h-2.25zm5.15-9.22h4.78v1h-3.75v2.74h3.64v1h-3.64v3.62h3.75v1h-4.78zm12.43 0h1.18l2.35 4.11 2.35-4.11h1.18l-3 5.26v4h-1v-4zm9.27 4.61a3.78 3.78 0 1 0 3.78-3.81 3.81 3.81 0 0 0 -3.82 3.84zm8.58 0a4.81 4.81 0 1 1 -4.8-4.79 4.78 4.78 0 0 1 4.76 4.84zm3.27.86a3.41 3.41 0 0 0 .4 2.06 2.39 2.39 0 0 0 1.86.88 2.46 2.46 0 0 0 1.81-.82 3.17 3.17 0 0 0 .45-2.12v-5.49h1v5.78a3.21 3.21 0 0 1 -.81 2.55 3.35 3.35 0 0 1 -2.48 1 3.48 3.48 0 0 1 -2.39-.94 3.26 3.26 0 0 1 -.9-2.66v-5.78h1zm9.76-1.22h.31c1.17 0 2.34-.22 2.34-1.65s-1.11-1.66-2.35-1.66h-.3zm0 5h-1v-9.22h1.33c1.75 0 3.38.47 3.38 2.55a2.41 2.41 0 0 1 -2.31 2.54l2.93 4.13h-1.26l-2.79-4h-.25zm16.26-7.42a1.71 1.71 0 0 0 -1.59-1 1.46 1.46 0 0 0 -1.53 1.43c0 .79.82 1.16 1.45 1.44l.61.27c1.2.53 2.21 1.13 2.21 2.59a2.91 2.91 0 0 1 -5.77.47l1-.28a1.91 1.91 0 0 0 1.85 1.71 1.85 1.85 0 0 0 1.89-1.8c0-1.07-.84-1.44-1.7-1.83l-.56-.25c-1.07-.49-2-1-2-2.36a2.42 2.42 0 0 1 2.58-2.35 2.65 2.65 0 0 1 2.38 1.44zm6.7 7.42h-1v-8.26h-2.23v-1h5.5v1h-2.25zm7.55-7.26-1.58 3.69h3.12zm-2 4.65-1.12 2.61h-1.12l4.25-9.66 4.15 9.66h-1.14l-1.09-2.61zm6.46-6.61h1.19l2.35 4.11 2.35-4.11h1.18l-3 5.26v4h-1v-4z"/><path d="m175.12 92.32c-15.76 0-31.52-.63-47.28-.63s-31.52.63-47.28.63l-80.56 2.81h255.68l-80.56-2.81c-15.76 0 26.86.94 0 0"/><path d="m28.74 60.78-2.84-7.64-3.12 7.64zm-7.59 5.84c1.71.18 2.54.31 2.54.68 0 .18-.13.31-.39.31-.58 0-1.68-.23-3.34-.23s-2.81.23-3.36.23c-.26 0-.42-.13-.42-.31 0-.37.84-.5 2.57-.68a70.38 70.38 0 0 0 3.42-6.62l2.47-5.44c.84-1.84 1.47-3.47 1.92-4.76s.32-1.78.73-1.78c.24 0 .27.28.37.89a42.82 42.82 0 0 0 2.1 6.41l2.87 7.25c.24.58.81 1.95 1.76 4.08 1.71.21 2.52.31 2.52.68 0 .18-.16.31-.42.31-.5 0-1.73-.23-3.81-.23-2.31 0-3.68.23-4.1.23-.26 0-.42-.13-.42-.31 0-.37.84-.5 2.55-.68a35.26 35.26 0 0 0 -1.71-5.21h-6.49a33 33 0 0 0 -1.36 5.18zm14.41-17.56c0-.18.16-.31.42-.31a37.33 37.33 0 0 0 3.81.23 38 38 0 0 0 3.83-.23c.27 0 .43.13.43.31 0 .37-.85.53-2.55.71l4.6 7.78c2.33-3.39 3.7-6 4-7.78-1.71-.18-2.55-.34-2.55-.71 0-.18.16-.31.42-.31.5 0 1.58.23 3.23.23s2.5-.23 3-.23c.26 0 .42.13.42.31 0 .35-.65.45-2 .71a59.87 59.87 0 0 0 -6.33 8.54v3.13c0 1.89.05 3.62.18 5.18 1.89.18 2.84.31 2.84.68 0 .18-.18.31-.47.31s-1.71-.21-4.07-.21-3.71.21-4.08.21-.47-.13-.47-.31c0-.4.94-.5 2.84-.68.13-1.58.18-3.32.18-5.18v-2.63l-5.28-9c-1.59-.22-2.4-.38-2.4-.75zm23.78.71c-1.71-.18-2.55-.31-2.55-.68 0-.18.18-.31.45-.31.55 0 1.62.23 3.23.23 1.78 0 3.57-.26 5.33-.26 4.73 0 7.17 1.63 7.17 4.65 0 2.73-2.28 4.91-6.3 5.41l3.65 5.13c1.08 1.49 1.76 2.41 2.73 2.41a5.65 5.65 0 0 0 1-.23.27.27 0 0 1 .26.29 3.39 3.39 0 0 1 -2.76 1.52c-2 0-2.94-1.34-4.57-3.65l-3.65-5.23a.91.91 0 0 1 -.24-.53c0-.23.13-.36.42-.36s.66.07 1.37.07c3.47 0 5.15-1 5.15-3.73a5 5 0 0 0 -5.13-5 10.26 10.26 0 0 0 -2.18.26c-.13 1.55-.18 3.29-.18 5.18v6.49c0 1.89 0 3.62.18 5.18 1.71.21 2.55.34 2.55.7 0 .19-.18.29-.45.29s-1.6-.21-3.8-.21-3.47.21-3.81.21-.45-.1-.45-.29c0-.36.84-.52 2.55-.7.13-1.58.18-3.32.18-5.18v-6.43c.03-1.92-.02-3.65-.15-5.23zm26.57 17a15 15 0 0 0 6-1.24l.18-1.62c0-.4.11-.56.29-.56s.18.16.18.5-.1 1-.1 2.05c0 1.47.13 2.45.13 2.87 0 .23 0 .34-.21.34s-.18-.13-.24-.4l-.14-.78a30.87 30.87 0 0 0 -6.9-.5h-3.92c-2.44 0-3.68.18-3.88.18s-.45-.13-.45-.31c0-.37.84-.53 2.55-.71.13-1.58.18-3.29.18-5.15v-6.52c0-1.86 0-3.57-.18-5.15-1.71-.18-2.55-.34-2.55-.71 0-.18.18-.31.45-.31s1.44.18 3.81.18h3.81a30.94 30.94 0 0 0 6.9-.5l.16-.81c0-.26.16-.4.27-.4s.21.11.21.35c0 .42-.13 1.39-.13 2.86 0 1 .1 1.73.1 2s-.05.5-.18.5-.27-.16-.32-.55l-.18-1.63a15.38 15.38 0 0 0 -6.31-1.24 20.92 20.92 0 0 0 -2.63.21c-.13 1.55-.18 3.26-.18 5.15v2.79h.84a29.65 29.65 0 0 0 7.53-.74l.23-1.5c0-.31.11-.5.29-.5s.24.13.24.37-.16 1.29-.16 2.76.16 2.39.16 2.76-.08.37-.24.37-.24-.16-.29-.48l-.23-1.52a31 31 0 0 0 -7.89-.82h-.47v3.08c0 1.89.05 3.6.18 5.15a25 25 0 0 0 3.09.21zm11.55 1.23c-.1.79-.13 1.18-.42 1.18s-.26-.1-.26-.37a37.37 37.37 0 0 0 .26-4c0-2.39-.16-3.65-.16-3.83s.08-.42.24-.42.29.18.34.57l.24 1.87a8.93 8.93 0 0 0 6.88 3.21c2.76 0 4.26-1.11 4.26-2.79 0-2.26-1.92-2.79-5.71-3.47-1.83-.31-3.38-.52-4.57-1.6a5 5 0 0 1 -1.56-3.87c0-3.68 2.52-6 6.67-6a13.68 13.68 0 0 1 5 1l.23-1.08c.16-.79.21-1.18.47-1.18s.24.13.24.37a31.73 31.73 0 0 0 -.42 5.59v.87s-.08.47-.23.47-.32-.21-.34-.6l-.14-1.45a8.68 8.68 0 0 0 -6.17-2.39c-2.71 0-4.36 1.32-4.36 3a2.19 2.19 0 0 0 .81 1.76c1.26 1 3.15 1 5.6 1.39 3.6.58 5.46 2.5 5.46 5.52 0 3.81-2.6 6.15-7.07 6.15a12.28 12.28 0 0 1 -5.15-1.24zm32.23-1.39c1.71.21 2.55.31 2.55.68 0 .18-.18.31-.45.31s-1.6-.21-3.81-.21-3.46.21-3.81.21-.44-.13-.44-.31c0-.37.84-.5 2.54-.68.14-1.58.19-3.32.19-5.18v-6.51c0-1.86 0-3.57-.19-5.15-1.7-.18-2.54-.34-2.54-.71 0-.18.18-.31.44-.31a37.07 37.07 0 0 0 3.83.25 37.33 37.33 0 0 0 3.81-.23c.27 0 .45.13.45.31 0 .37-.84.53-2.55.71-.13 1.55-.18 3.26-.18 5.15v3h9.06v-3c0-1.86 0-3.57-.18-5.15-1.71-.18-2.55-.34-2.55-.71 0-.18.16-.31.42-.31a31.92 31.92 0 0 0 7.65 0c.26 0 .42.13.42.31 0 .37-.82.53-2.53.71-.13 1.55-.21 3.26-.21 5.15v6.52c0 1.89.08 3.62.21 5.18 1.71.21 2.53.31 2.53.68 0 .18-.16.31-.42.31s-1.61-.21-3.81-.21-3.5.21-3.84.21-.42-.13-.42-.31c0-.37.84-.5 2.55-.68.13-1.58.18-3.32.18-5.18v-2.91h-9.06v2.89c-.02 1.89.03 3.62.16 5.18zm26.5.68c3.89 0 6.59-3.34 6.59-9.12s-2.54-9.12-6.38-9.12-6.6 3.37-6.6 9.12 2.55 9.13 6.39 9.13zm-7.25-2a9 9 0 0 1 -2.58-6.7 9.78 9.78 0 0 1 2.79-7.23 10.25 10.25 0 0 1 7.49-2.89 9.62 9.62 0 0 1 7 2.66 9 9 0 0 1 2.62 6.72c0 6-4.07 10.12-10.3 10.12a9.63 9.63 0 0 1 -7.02-2.72zm29.34-15.61q-.21 2.45-.21 5.28v6.52c0 1.89.07 3.6.21 5.15 1.7.21 2.52.34 2.52.71 0 .18-.16.31-.42.31-.45 0-1.69-.23-3.73-.23-2.24 0-3.53.23-3.92.23s-.42-.13-.42-.31c0-.37.81-.53 2.52-.71.13-1.58.21-3.29.21-5.15v-6.56c0-1.84 0-3.6-.18-5.28a14.91 14.91 0 0 0 -6.2 1.29l-.19 1.5c-.05.39-.13.55-.31.55s-.18-.16-.18-.5.1-1 .1-2c0-1.45-.13-2.39-.13-2.86 0-.24.05-.35.21-.35s.21.14.26.4l.13.81a31.19 31.19 0 0 0 6.94.5h2.15a31 31 0 0 0 6.91-.5l.16-.81c.06-.26.13-.4.24-.4s.21.11.21.35c0 .42-.11 1.39-.11 2.86 0 1 .09 1.73.09 2s-.06.5-.19.5-.24-.16-.29-.55l-.18-1.5a15 15 0 0 0 -6.2-1.29zm18.92 17.12a15 15 0 0 0 6-1.24l.19-1.62c0-.4.1-.56.28-.56s.19.16.19.5-.11 1-.11 2.05c0 1.47.13 2.45.13 2.87 0 .23 0 .34-.21.34s-.18-.13-.23-.4l-.16-.81a31.05 31.05 0 0 0 -6.91-.5h-3.94c-2.45 0-3.68.18-3.89.18s-.45-.13-.45-.31c0-.37.84-.53 2.55-.71.13-1.58.19-3.29.19-5.15v-6.52c0-1.86-.06-3.57-.19-5.15-1.71-.18-2.55-.34-2.55-.71 0-.18.19-.31.45-.31s1.44.18 3.81.18h3.81a31.05 31.05 0 0 0 6.91-.5l.16-.81c0-.26.16-.4.26-.4s.21.11.21.35c0 .42-.13 1.39-.13 2.86 0 1 .1 1.73.1 2s-.05.5-.18.5-.26-.16-.32-.55l-.17-1.58a15.33 15.33 0 0 0 -6.3-1.24 20.78 20.78 0 0 0 -2.63.21c-.14 1.55-.18 3.26-.18 5.15v2.79h.84a29.57 29.57 0 0 0 7.51-.79l.24-1.5c.05-.31.1-.5.29-.5s.23.13.23.37-.15 1.29-.15 2.76.15 2.39.15 2.76-.08.37-.23.37-.24-.16-.29-.48l-.24-1.52a30.88 30.88 0 0 0 -7.88-.82h-.47v3.08c0 1.89 0 3.6.18 5.15a24.71 24.71 0 0 0 3.13.21zm18.42 0a15.66 15.66 0 0 0 6.23-1.27l.18-2.15c0-.37.13-.58.32-.58s.18.19.18.53c0 .18-.11 1-.11 2.34 0 1.7.13 2.73.13 3.1s-.05.34-.2.34-.22-.13-.27-.4l-.13-.81a31.05 31.05 0 0 0 -6.91-.5h-3c-2.44 0-3.67.18-3.88.18s-.45-.13-.45-.31c0-.37.84-.53 2.55-.71.13-1.58.18-3.29.18-5.15v-6.49c0-1.86-.05-3.57-.18-5.15-1.71-.18-2.55-.34-2.55-.71 0-.18.18-.31.45-.31s1.44.18 3.81.18 3.6-.18 3.81-.18.44.13.44.31c0 .37-.84.53-2.55.71-.13 1.55-.18 3.26-.18 5.15v6.52c0 1.89 0 3.6.18 5.15a8.32 8.32 0 0 0 1.95.24zm11.23 1.2c-.1.79-.13 1.18-.42 1.18s-.26-.1-.26-.36a37.62 37.62 0 0 0 .26-4c0-2.39-.16-3.66-.16-3.84s.08-.42.24-.42.29.18.34.58l.24 1.86a8.9 8.9 0 0 0 6.91 3.19c2.76 0 4.26-1.1 4.26-2.79 0-2.26-1.92-2.78-5.7-3.46-1.84-.32-3.39-.53-4.57-1.61a5 5 0 0 1 -1.58-3.86c0-3.68 2.52-6 6.67-6a13.62 13.62 0 0 1 5 1l.23-1.08c.16-.78.21-1.18.48-1.18s.23.13.23.37a31.93 31.93 0 0 0 -.42 5.6c0 .28.05.6.05.86s-.07.48-.23.48-.32-.21-.34-.61l-.14-1.44a8.61 8.61 0 0 0 -6.17-2.39c-2.71 0-4.36 1.31-4.36 3a2.22 2.22 0 0 0 .81 1.76c1.26 1 3.15 1 5.6 1.4 3.6.58 5.47 2.49 5.47 5.51 0 3.81-2.61 6.15-7.07 6.15a12.34 12.34 0 0 1 -5.22-1.21z"/><path d="m160.26 28.56a10.68 10.68 0 0 0 -9.52-6.74h-.19-.4a78.1 78.1 0 0 1 1.85-9.41c.05-.23.11-.46.17-.71 2-8.6 2.25-9.62 2-10.16a2.17 2.17 0 0 0 -2.1-1.54h-.19c-1.63 0-4.19 3.86-12.63 17.81a8.93 8.93 0 0 0 -4.85-1.62h-.18c-3.38 0-4 2.3-4 3.62a2.8 2.8 0 0 0 .11 1.13.62.62 0 0 0 .61.39c.22 0 .24-.06.28-.52 0 0 0-.25 0-.31s0-.26.05-.39a4.25 4.25 0 0 1 .18-.85 2.41 2.41 0 0 1 2.58-1.81c1.48 0 2.58.48 4.28 1.83-5.09 8.76-10.23 18.29-20.55 19.06-.3 0-.6 0-.9 0h-.35a17.22 17.22 0 0 1 -16.24-11c-3.1-7.87.7-14.07 8-14.07 4.58 0 9 2.38 10.12 5.18a8.37 8.37 0 0 1 .33 1.12c0 .15.06.27.11.52a9.82 9.82 0 0 0 .48 1.81 3.24 3.24 0 0 0 2.7 2.2c1.17 0 1.71-.95 1.2-2.23-.66-1.68-2.78-4.2-5.39-6.16a18.84 18.84 0 0 0 -11.34-4h-.19c-6.29-.01-10.29 3.65-10.54 8.9a13.41 13.41 0 0 0 1 5.69c3.07 7.78 11.56 13.13 19.87 13.13 8.89 0 14.24-4.48 19.93-14.08.58-1 2.35-4.09 2.89-5a6.59 6.59 0 0 1 1.56 2.5 12.85 12.85 0 0 1 .7 2.15c-.86 1.06-2.48 3.3-2.6 5.21v.23.19a3 3 0 0 0 .18 1 1.79 1.79 0 0 0 1.59 1c1.29 0 1.79-1.28 1.94-3.75 0-.36 0-.58.07-1.33a11.93 11.93 0 0 1 .12-1.55c.14-.75 1.78-1.87 3.07-2.28-.07.66-.11 1.37-.13 2.11a17.65 17.65 0 0 0 1 7c1.57 4 4.51 6.52 8.17 6.52 5.01.08 7.26-5.46 5.15-10.79zm-61.39-6.69v1c0-.32 0-.66 0-1zm43.21-.42a9 9 0 0 0 -1.71-2.64c6.63-11.33 10.75-17.55 11.45-17.55.23 0 .42.18.55.49-.29 1.85-5.05 13.84-6.18 20.51a12.32 12.32 0 0 0 -3.39 1.87 12.61 12.61 0 0 0 -.72-2.68zm8.86 13.55c-1.19-3-1.39-6.91-1-11.86h.17.28.21c2.92 0 5.89 2.65 7.49 6.55a11.11 11.11 0 0 1 .69 3.19c.12 3-1.24 5.51-4 5.57-1.78-.1-2.95-1.19-3.84-3.45zm-34.38 4h1c-.3 0-.58 0-.88 0z"/></g></svg>